# xmcd
#
# Track frame offsets:
#	150
#	16729
#	33472
#	51726
#	70262
#	86936
#	108800
#	126488
#	142671
#	157896
#
# Disc length: 2529 seconds
#
# Revision: 1
# Processed by: cddbd v1.5.2PL0 Copyright (c) Steve Scherf et al.
# Submitted via: audiograbber 1.83.01
#
DISCID=8309df0a
DTITLE=JENNIE LENA - TO BE HONEST
DYEAR=2018
DGENRE=Blues
TTITLE0=SIMPLE LOVE
TTITLE1=SHINE
TTITLE2=THESE ARMS
TTITLE3=TROUBLE
TTITLE4=MAMA'S GONNA BE THERE
TTITLE5=WE GROW
TTITLE6=THE WOMAN YOU ARE
TTITLE7=HEAVEN WINS AGAIN
TTITLE8=WHO'S LOVING YOU
TTITLE9=I'D RATHER GO BLIND (LIVE)
EXTD=
EXTT0=
EXTT1=
EXTT2=
EXTT3=
EXTT4=
EXTT5=
EXTT6=
EXTT7=
EXTT8=
EXTT9=
PLAYORDER=
